<svg width="126.000000" height="125.000000" viewBox="0 0 126 125" fill="none" xmlns="http://www.w3.org/2000/svg" xmlns:xlink="http://www.w3.org/1999/xlink">
	<desc>
			Created with Pixso.
	</desc>
	<defs>
		<clipPath id="clip1_3525">
			<rect id="mingcute:arrow-up-line" rx="19.500000" width="124.000000" height="125.000000" transform="matrix(0 1 1 0 0.5 0.5)" fill="white" fill-opacity="0"/>
		</clipPath>
	</defs>
	<g opacity="0.300000">
		<rect id="mingcute:arrow-up-line" rx="19.500000" width="124.000000" height="125.000000" transform="matrix(0 1 1 0 0.5 0.5)" fill="#FFFFFF" fill-opacity="1.000000"/>
		<g clip-path="url(#clip1_3525)">
			<path id="Vector" d="M35.81 64.76C35.2 64.16 34.86 63.35 34.86 62.5C34.86 61.64 35.2 60.83 35.81 60.23L54.2 42.08C54.5 41.77 54.86 41.53 55.25 41.36C55.65 41.19 56.08 41.1 56.51 41.1C56.94 41.09 57.37 41.18 57.77 41.34C58.17 41.5 58.53 41.74 58.83 42.04C59.14 42.34 59.38 42.7 59.54 43.09C59.71 43.49 59.79 43.91 59.78 44.33C59.78 44.76 59.69 45.18 59.52 45.57C59.35 45.96 59.1 46.32 58.79 46.61L45.96 59.29L89 59.29C89.86 59.29 90.68 59.62 91.29 60.23C91.9 60.83 92.25 61.64 92.25 62.5C92.25 63.35 91.9 64.16 91.29 64.76C90.68 65.37 89.86 65.7 89 65.7L45.96 65.7L58.79 78.38C59.38 78.98 59.71 79.79 59.71 80.63C59.7 81.47 59.36 82.28 58.75 82.87C58.15 83.47 57.34 83.81 56.48 83.81C55.63 83.82 54.81 83.5 54.2 82.91L35.81 64.76Z" fill="#000000" fill-opacity="1.000000" fill-rule="nonzero"/>
		</g>
	</g>
</svg>
