<svg width="126.000000" height="125.000000" viewBox="0 0 126 125" fill="none" xmlns="http://www.w3.org/2000/svg" xmlns:xlink="http://www.w3.org/1999/xlink">
	<desc>
			Created with Pixso.
	</desc>
	<defs>
		<clipPath id="clip1_3529">
			<rect id="mingcute:arrow-up-line" rx="19.500000" width="124.000000" height="125.000000" transform="translate(126.500000 0.500000) rotate(90.000000)" fill="white" fill-opacity="0"/>
		</clipPath>
	</defs>
	<rect id="mingcute:arrow-up-line" rx="19.500000" width="124.000000" height="125.000000" transform="translate(126.500000 0.500000) rotate(90.000000)" fill="#FFFFFF" fill-opacity="1.000000"/>
	<g clip-path="url(#clip1_3529)">
		<path id="Vector" d="M90.18 64.76C90.79 64.16 91.13 63.35 91.13 62.5C91.13 61.64 90.79 60.83 90.18 60.23L71.79 42.08C71.49 41.77 71.13 41.53 70.74 41.36C70.34 41.19 69.91 41.1 69.48 41.1C69.05 41.09 68.62 41.18 68.22 41.34C67.83 41.5 67.46 41.74 67.16 42.04C66.85 42.34 66.61 42.7 66.45 43.09C66.28 43.49 66.2 43.91 66.21 44.33C66.21 44.76 66.3 45.18 66.47 45.57C66.64 45.96 66.89 46.32 67.2 46.61L80.03 59.29L37 59.29C36.13 59.29 35.31 59.62 34.7 60.23C34.09 60.83 33.75 61.64 33.75 62.5C33.75 63.35 34.09 64.16 34.7 64.76C35.31 65.37 36.13 65.7 37 65.7L80.03 65.7L67.2 78.38C66.61 78.98 66.28 79.79 66.29 80.63C66.29 81.47 66.63 82.28 67.24 82.87C67.84 83.47 68.65 83.81 69.51 83.81C70.36 83.82 71.18 83.5 71.79 82.91L90.18 64.76Z" fill="#000000" fill-opacity="1.000000" fill-rule="nonzero"/>
	</g>
</svg>
